<?xml version="1.0" encoding="utf-8"?>
<!-- Generator: Adobe Illustrator 21.0.2, SVG Export Plug-In . SVG Version: 6.00 Build 0)  -->
<svg version="1.1" id="Capa_1" xmlns="http://www.w3.org/2000/svg" xmlns:xlink="http://www.w3.org/1999/xlink" x="0px" y="0px"
	 viewBox="0 0 512 512" style="enable-background:new 0 0 512 512;" xml:space="preserve">
<style type="text/css">
	.st0{fill:#FF8212;}
	.st1{fill:#FFE100;}
	.st2{fill:#FFFFFF;}
</style>
<g>
	<path class="st0" d="M469.3,375.5H332.8c-4.7,0-8.5-3.8-8.5-8.5s3.8-8.5,8.5-8.5h136.5c4.7,0,8.5,3.8,8.5,8.5
		C477.9,371.6,474.1,375.5,469.3,375.5z"/>
	<path class="st1" d="M469.3,375.5c-2.2,0-4.4-0.8-6-2.5l-34.1-34.1c-3.3-3.3-3.3-8.7,0-12.1c3.3-3.3,8.7-3.3,12.1,0l34.1,34.1
		c3.3,3.3,3.3,8.7,0,12.1C473.7,374.6,471.5,375.5,469.3,375.5"/>
	<path class="st0" d="M435.2,409.6c-2.2,0-4.4-0.8-6-2.5c-3.3-3.3-3.3-8.7,0-12.1l34.1-34.1c3.3-3.3,8.7-3.3,12.1,0
		c3.3,3.3,3.3,8.7,0,12.1l-34.1,34.1C439.6,408.8,437.4,409.6,435.2,409.6"/>
	<path class="st0" d="M469.3,452.3H332.8c-4.7,0-8.5-3.8-8.5-8.5s3.8-8.5,8.5-8.5h136.5c4.7,0,8.5,3.8,8.5,8.5
		C477.9,448.4,474.1,452.3,469.3,452.3"/>
	<path class="st0" d="M366.9,486.4c-2.2,0-4.4-0.8-6-2.5l-34.1-34.1c-3.3-3.3-3.3-8.7,0-12.1s8.7-3.3,12.1,0l34.1,34.1
		c3.3,3.3,3.3,8.7,0,12.1C371.3,485.6,369.1,486.4,366.9,486.4"/>
	<path class="st0" d="M332.8,452.3c-2.2,0-4.4-0.8-6-2.5c-3.3-3.3-3.3-8.7,0-12.1l34.1-34.1c3.3-3.3,8.7-3.3,12.1,0s3.3,8.7,0,12.1
		l-34.1,34.1C337.2,451.4,335,452.3,332.8,452.3"/>
	<path class="st0" d="M476.1,34.1H172.4c-15.1,0-27.4,12.2-27.4,27.4v143.7c52,3.4,95.3,37.8,112,84.9h219
		c15.1,0,27.4-12.2,27.4-27.4V61.5C503.5,46.4,491.2,34.1,476.1,34.1"/>
</g>
<polygon class="st0" points="145.1,110.9 503.5,110.9 503.5,76.8 145.1,76.8 "/>
<path class="st0" d="M476.1,34.1h-25.6c15.1,0,27.4,12.2,27.4,27.4v201.3c0,15.1-12.2,27.4-27.4,27.4h25.6
	c15.1,0,27.4-12.2,27.4-27.4V61.5C503.5,46.4,491.2,34.1,476.1,34.1"/>
<path class="st2" d="M172.4,34.1H198c-15.1,0-27.4,12.2-27.4,27.4v201.3c0,15.1,12.2,27.4,27.4,27.4h-25.6
	c-15.1,0-27.4-12.2-27.4-27.4V61.5C145.1,46.4,157.3,34.1,172.4,34.1"/>
<path class="st0" d="M264.5,332.8c0-70.7-57.3-128-128-128s-128,57.3-128,128s57.3,128,128,128S264.5,403.5,264.5,332.8"/>
<path class="st0" d="M136.5,204.8c-4.3,0-8.6,0.2-12.8,0.6c64.7,6.4,115.2,61,115.2,127.4s-50.5,120.9-115.2,127.4
	c4.2,0.4,8.5,0.6,12.8,0.6c70.7,0,128-57.3,128-128S207.2,204.8,136.5,204.8"/>
<path class="st2" d="M136.5,204.8c4.3,0,8.6,0.2,12.8,0.6c-64.7,6.4-115.2,61-115.2,127.4s50.5,120.9,115.2,127.4
	c-4.2,0.4-8.5,0.6-12.8,0.6c-70.7,0-128-57.3-128-128S65.8,204.8,136.5,204.8"/>
<g>
	<path d="M153.6,102.4h341.3V85.3H153.6V102.4z M503.5,119.5H145.1c-4.7,0-8.5-3.8-8.5-8.5V76.8c0-4.7,3.8-8.5,8.5-8.5h358.4
		c4.7,0,8.5,3.8,8.5,8.5v34.1C512,115.7,508.2,119.5,503.5,119.5L503.5,119.5z"/>
	<path d="M264.5,170.7h-76.8c-4.7,0-8.5-3.8-8.5-8.5s3.8-8.5,8.5-8.5h76.8c4.7,0,8.5,3.8,8.5,8.5S269.3,170.7,264.5,170.7"/>
	<path d="M460.8,170.7H384c-4.7,0-8.5-3.8-8.5-8.5s3.8-8.5,8.5-8.5h76.8c4.7,0,8.5,3.8,8.5,8.5S465.5,170.7,460.8,170.7"/>
	<path d="M341.3,170.7h-34.1c-4.7,0-8.5-3.8-8.5-8.5s3.8-8.5,8.5-8.5h34.1c4.7,0,8.5,3.8,8.5,8.5S346.1,170.7,341.3,170.7"/>
	<path d="M136.5,213.3C70.6,213.3,17,266.9,17,332.8s53.6,119.5,119.5,119.5S256,398.7,256,332.8S202.4,213.3,136.5,213.3
		 M136.5,469.3C61.3,469.3,0,408.1,0,332.8s61.3-136.5,136.5-136.5S273,257.6,273,332.8S211.8,469.3,136.5,469.3"/>
	<path d="M136.5,213.3c-32.4,0-59.7,54.7-59.7,119.5s27.4,119.5,59.7,119.5s59.7-54.7,59.7-119.5S168.9,213.3,136.5,213.3
		 M136.5,469.3c-43.1,0-76.8-60-76.8-136.5s33.7-136.5,76.8-136.5s76.8,60,76.8,136.5S179.6,469.3,136.5,469.3"/>
	<polygon points="8.5,341.3 264.5,341.3 264.5,324.3 8.5,324.3 	"/>
	<polygon points="128,460.8 145.1,460.8 145.1,204.8 128,204.8 	"/>
	<path d="M263,281.6h213.1c10.4,0,18.8-8.4,18.8-18.8V61.5c0-10.4-8.4-18.8-18.8-18.8H172.4c-10.4,0-18.8,8.4-18.8,18.8v136
		C202.6,203.6,244.4,235.7,263,281.6 M476.1,298.7h-219c-3.6,0-6.8-2.3-8-5.7c-15.9-45-57-76.1-104.6-79.2c-4.5-0.3-8-4-8-8.5V61.5
		c0-19.8,16.1-35.9,35.9-35.9h303.7c19.8,0,35.9,16.1,35.9,35.9v201.3C512,282.6,495.9,298.7,476.1,298.7"/>
	<path d="M460.8,366.9H324.3c-4.7,0-8.5-3.8-8.5-8.5s3.8-8.5,8.5-8.5h136.5c4.7,0,8.5,3.8,8.5,8.5S465.5,366.9,460.8,366.9"/>
	<path d="M460.8,366.9c-2.2,0-4.4-0.8-6-2.5l-34.1-34.1c-3.3-3.3-3.3-8.7,0-12.1c3.3-3.3,8.7-3.3,12.1,0l34.1,34.1
		c3.3,3.3,3.3,8.7,0,12.1C465.2,366.1,463,366.9,460.8,366.9"/>
	<path d="M426.7,401.1c-2.2,0-4.4-0.8-6-2.5c-3.3-3.3-3.3-8.7,0-12.1l34.1-34.1c3.3-3.3,8.7-3.3,12.1,0s3.3,8.7,0,12.1l-34.1,34.1
		C431,400.2,428.9,401.1,426.7,401.1"/>
	<path d="M460.8,443.7H324.3c-4.7,0-8.5-3.8-8.5-8.5s3.8-8.5,8.5-8.5h136.5c4.7,0,8.5,3.8,8.5,8.5
		C469.3,439.9,465.5,443.7,460.8,443.7"/>
	<path d="M358.4,477.9c-2.2,0-4.4-0.8-6-2.5l-34.1-34.1c-3.3-3.3-3.3-8.7,0-12.1c3.3-3.3,8.7-3.3,12.1,0l34.1,34.1
		c3.3,3.3,3.3,8.7,0,12.1C362.8,477,360.6,477.9,358.4,477.9"/>
	<path d="M324.3,443.7c-2.2,0-4.4-0.8-6-2.5c-3.3-3.3-3.3-8.7,0-12.1l34.1-34.1c3.3-3.3,8.7-3.3,12.1,0c3.3,3.3,3.3,8.7,0,12.1
		l-34.1,34.1C328.6,442.9,326.5,443.7,324.3,443.7"/>
</g>
</svg>
