<?xml version="1.0" encoding="utf-8"?>
<!-- Generator: Adobe Illustrator 21.0.2, SVG Export Plug-In . SVG Version: 6.00 Build 0)  -->
<svg version="1.1" id="Layer_1" xmlns="http://www.w3.org/2000/svg" xmlns:xlink="http://www.w3.org/1999/xlink" x="0px" y="0px"
	 viewBox="0 0 512 512" style="enable-background:new 0 0 512 512;" xml:space="preserve">
<style type="text/css">
	.st0{fill:#FFFFFF;}
	.st1{fill:#FF8000;}
</style>
<path class="st0" d="M128,157.9c0-70.8,57.2-128,128-128s128,57.2,128,128v59.7c0,75.1-57.2,153.6-128,153.6s-128-78.5-128-153.6
	V157.9z"/>
<path class="st1" d="M401.1,128.9c0,23.9-22.2,42.7-46.1,38.4c-66.6-11.9-134-11.9-198.8,0c-23.9,4.3-46.1-14.5-46.1-38.4
	C111,69.2,158.7,21.4,218.5,21.4h75.9C353.3,21.3,401.1,69.1,401.1,128.9"/>
<g>
	<path class="st1" d="M293.5,20.5h-11.1c52.9,6.8,93,51.2,93,105.8l0,0c0,18.8-12.8,34.1-29.9,37.5c3.4,0.9,6.8,0.9,10.2,1.7
		c23.9,4.3,46.1-14.5,46.1-38.4C401.1,68.3,353.3,20.5,293.5,20.5"/>
	<path class="st1" d="M355,167.3c22.2,4.3,43.5-11.9,45.2-35l-45.2-7.7c-66.6-11.9-134-11.9-198.8,0l-45.2,7.7
		c1.7,22.2,23,38.4,45.2,35C221,154.5,288.4,154.5,355,167.3"/>
</g>
<polygon class="st0" points="238.9,89.6 273.1,89.6 273.1,46.9 238.9,46.9 "/>
<path class="st1" d="M483,419.8c-46.9-24.7-92.2-43.5-133.1-48.6h-4.3L290.1,448L256,371.2L221.9,448l-55.5-76.8h-4.3
	c-41,5.1-86.2,23.9-133.1,48.6C16.2,426.7,8.5,439.5,8.5,454v36.7h204.8h85.3H384h119.5V454C503.5,439.5,495.8,426.7,483,419.8"/>
<path class="st1" d="M483,419.8c-46.9-24.7-92.2-43.5-133.1-48.6h-4.3l-2.6,3.4c35.8,7.7,73.4,23.9,113.5,45.2
	c12.8,6.8,20.5,19.6,20.5,34.1v36.7h25.6V454C503.5,439.5,495.8,426.7,483,419.8"/>
<g>
	<path class="st1" d="M164.7,320.9l-2.6-0.9l-8.5,34.1l68.3,93.9l34.1-76.8C220.2,371.2,187.7,350.7,164.7,320.9"/>
	<path class="st1" d="M347.3,320.9c-23,29.9-55.5,50.3-91.3,50.3l34.1,76.8l68.3-93.9l-8.5-34.1L347.3,320.9z"/>
</g>
<path class="st0" d="M29,419.8c46.9-24.7,92.2-43.5,133.1-48.6h4.3l2.6,3.4c-35.8,7.7-73.4,23.9-113.5,45.2
	c-13.7,6.8-21.3,19.6-21.3,34.1v36.7H8.5V454C8.5,439.5,16.2,426.7,29,419.8"/>
<path d="M221.9,456.5c-2.6,0-5.1-1.7-6.8-3.4l-68.3-93.9c-1.7-2.6-1.7-5.1-1.7-6.8l8.5-34.1c0.9-2.6,2.6-4.3,5.1-6
	c2.6-0.9,5.1-0.9,7.7,0l2.6,0.9c0.9,0.9,1.7,1.7,2.6,2.6c23.9,29.9,53.8,46.9,84.5,46.9c2.6,0,6,1.7,6.8,4.3s1.7,5.1,0.9,8.5
	l-34.1,76.8c-0.9,2.6-4.3,5.1-6.8,5.1C222.7,456.5,221.9,456.5,221.9,456.5z M163,352.4l57.2,78.5l23-52.1
	c-27.3-3.4-54.6-17.9-76.8-41.8L163,352.4z"/>
<path d="M290.1,456.5h-0.9c-3.4,0-6-2.6-6.8-5.1l-34.1-76.8c-0.9-2.6-0.9-6,0.9-8.5c1.7-2.6,4.3-3.4,6.8-3.4
	c31.6,0,61.4-16.2,84.5-46.9c0.9-0.9,1.7-1.7,2.6-2.6l2.6-0.9c2.6-0.9,5.1-1.7,7.7,0c2.6,0.9,4.3,3.4,5.1,6l8.5,34.1
	c0.9,2.6,0,5.1-1.7,6.8L297,453.1C295.3,454.8,292.7,456.5,290.1,456.5z M268.8,378.9l23,52.1l57.2-78.5l-3.4-15.4
	C323.4,361,296.1,375.5,268.8,378.9z"/>
<path d="M503.5,499.2H8.5c-5.1,0-8.5-3.4-8.5-8.5V454c0-17.9,9.4-34.1,25.6-41.8c56.3-29.9,98.1-45.2,135.7-49.5h0.9h4.3
	c2.6,0,5.1,1.7,6.8,3.4l46.9,64.9l28.2-63.1c1.7-3.4,4.3-5.1,7.7-5.1s6.8,1.7,7.7,5.1L292,431l46.9-64.9c1.7-2.6,4.3-3.4,6.8-3.4
	h4.3h0.9c37.5,4.3,79.4,19.6,135.7,49.5l0,0c15.4,8.5,25.6,24.7,25.6,41.8v36.7C512,495.8,508.6,499.2,503.5,499.2z M298.7,482.1
	H495V454c0-11.1-6-21.3-16.2-27.3c-53.8-28.2-93.9-42.7-128.9-47.8L297,452.3c-1.7,2.6-5.1,3.4-7.7,3.4c-3.4,0-6-2.6-6.8-5.1
	l-26.5-58l-26.5,58.9c-0.9,2.6-4.3,5.1-6.8,5.1c-3.4,0-6-0.9-7.7-3.4l-52.9-73.4c-35,4.3-74.2,18.8-128.9,47.8
	c-10.2,5-16.1,15.3-16.1,26.4v28.2h281.6V482.1z"/>
<path d="M361.8,175.8c-2.6,0-5.1,0-8.5-0.9c-65.7-11.9-131.4-11.9-195.4,0c-13.7,2.6-28.2-1.7-39.3-10.2
	c-11.1-9.4-17.1-22.2-17.1-36.7c0.9-63.1,52.9-115.2,116.9-115.2h75.9c63.1,0,115.2,52.1,115.2,116.1c0,13.7-6,27.3-17.1,36.7
	C384,172.4,372.9,175.8,361.8,175.8z M255.1,149.3c33.3,0,67.4,3.4,101.5,9.4c8.5,1.7,17.9-0.9,24.7-6.8c6.8-6,11.1-14.5,11.1-23
	c0-54.6-44.4-99-99-99h-75.9c-53.8,0-98.1,44.4-98.1,99c0,9.4,4.3,17.9,11.1,23c6.8,5.1,16.2,8.5,24.7,6.8
	C187.7,152.7,221.9,149.3,255.1,149.3z"/>
<path d="M273.1,98.1H239c-5.1,0-8.5-3.4-8.5-8.5V46.9c0-5.1,3.4-8.5,8.5-8.5h34.1c5.1,0,8.5,3.4,8.5,8.5v42.7
	C281.6,94.7,278.2,98.1,273.1,98.1z M247.5,81.1h17.1V55.5h-17.1V81.1z"/>
<path d="M362.7,175.8c-2.6,0-6,0-8.5-0.9l0,0c-65.7-11.9-131.4-11.9-195.4,0c-13.7,2.6-26.5-0.9-36.7-8.5s-17.1-20.5-18.8-33.3
	c0-4.3,2.6-8.5,6.8-9.4l45.2-7.7c65.7-11.9,134-11.9,201.4,0l45.2,7.7c4.3,0.9,7.7,5.1,6.8,9.4c-0.9,12.8-7.7,25.6-18.8,33.3
	C382.3,172.4,372.9,175.8,362.7,175.8z M356.7,158.7c8.5,1.7,17.1-0.9,23.9-6c4.3-3.4,8.5-8.5,10.2-13.7l-36.7-6.8
	c-65.7-11.9-131.4-11.9-195.4,0L122,139c1.7,5.1,5.1,10.2,10.2,13.7c6.8,5.1,15.4,6.8,23.9,6C221,145.9,289.3,145.9,356.7,158.7z"/>
<path d="M256,379.7c-78.5,0-136.5-85.3-136.5-162.1v-57.2c0-3.4,1.7-6,4.3-7.7c2.6-1.7,6-1.7,8.5,0.9c6.8,4.3,14.5,6,22.2,5.1
	c65.7-11.9,134-11.9,201.4,0c7.7,1.7,15.4,0,22.2-5.1c2.6-1.7,6-1.7,8.5-0.9c2.6,1.7,4.3,4.3,4.3,7.7v57.2
	C392.5,294.4,334.5,379.7,256,379.7z M136.5,174.1v43.5c0,82.8,63.1,145.1,119.5,145.1s119.5-62.3,119.5-145.1v-43.5
	c-6.8,1.7-14.5,2.6-21.3,0.9l0,0c-65.7-11.9-131.4-11.9-195.4,0C151,176.6,143.4,175.8,136.5,174.1z"/>
</svg>
