<?xml version="1.0" encoding="utf-8"?>
<!-- Generator: Adobe Illustrator 21.0.2, SVG Export Plug-In . SVG Version: 6.00 Build 0)  -->
<svg version="1.1" id="Layer_1" xmlns="http://www.w3.org/2000/svg" xmlns:xlink="http://www.w3.org/1999/xlink" x="0px" y="0px"
	 viewBox="0 0 512 512" style="enable-background:new 0 0 512 512;" xml:space="preserve">
<style type="text/css">
	.st0{fill:#FF7A1B;}
	.st1{fill:#FFFFFF;}
	.st2{fill:#FCC309;}
</style>
<path class="st0" d="M166.4,375.5c-14.5,0-25.6-11.1-25.6-25.6V145.1c0-14.5,11.1-25.6,25.6-25.6h136.5V34.1
	c0-13.7-11.1-25.6-25.6-25.6H55.5C41,8.5,29.9,19.6,29.9,34.1v443.7c0,13.7,11.1,25.6,25.6,25.6h221.9c13.7,0,25.6-11.1,25.6-25.6
	V375.5H166.4L166.4,375.5z"/>
<path class="st0" d="M166.4,375.5c-14.5,0-25.6-11.1-25.6-25.6V145.1c0-14.5,11.1-25.6,25.6-25.6h136.5V59.7h-273v375.5H303v-59.7
	H166.4z"/>
<path class="st1" d="M53.9,477.9V34.1C53.9,20.5,69.6,8.5,90,8.5H65.9c-19.2,0-36.1,11.1-36.1,25.6v443.7
	c0,13.7,15.6,25.6,36.1,25.6H90C70.8,503.5,53.9,492.4,53.9,477.9"/>
<path class="st0" d="M465.1,375.5H166.4c-14.5,0-25.6-11.1-25.6-25.6V145.1c0-14.5,11.1-25.6,25.6-25.6h298.7
	c14.5,0,25.6,11.1,25.6,25.6v204.8C490.7,364.4,479.6,375.5,465.1,375.5"/>
<polygon class="st2" points="140.8,213.3 490.7,213.3 490.7,162.1 140.8,162.1 "/>
<path class="st0" d="M465.1,119.5H448c14.5,0,25.6,11.1,25.6,25.6v204.8c0,14.5-11.1,25.6-25.6,25.6h17.1
	c14.5,0,25.6-11.1,25.6-25.6V145.1C490.7,130.6,479.6,119.5,465.1,119.5"/>
<polygon class="st1" points="345.6,341.3 456.5,341.3 456.5,281.6 345.6,281.6 "/>
<polygon class="st1" points="149.3,217.6 478,217.6 478,157.9 149.3,157.9 "/>
<polygon class="st0" points="439.5,341.3 456.5,341.3 456.5,281.6 439.5,281.6 "/>
<path d="M200.5,42.7h-42.7c-5.1,0-8.5-3.4-8.5-8.5s3.4-8.5,8.5-8.5h42.7c5.1,0,8.5,3.4,8.5,8.5S205.7,42.7,200.5,42.7z"/>
<path d="M132.3,42.7h-8.5c-5.1,0-8.5-3.4-8.5-8.5s3.4-8.5,8.5-8.5h8.5c5.1,0,8.5,3.4,8.5,8.5S137.4,42.7,132.3,42.7z"/>
<path d="M21.3,102.4c-5.1,0-8.5-3.4-8.5-8.5v-8.5c0-5.1,3.4-8.5,8.5-8.5s8.5,3.4,8.5,8.5v8.5C29.9,99,26.5,102.4,21.3,102.4z"/>
<path d="M21.3,136.5c-5.1,0-8.5-3.4-8.5-8.5v-8.5c0-5.1,3.4-8.5,8.5-8.5s8.5,3.4,8.5,8.5v8.5C29.9,133.1,26.5,136.5,21.3,136.5z"/>
<path d="M21.3,170.7c-5.1,0-8.5-3.4-8.5-8.5v-8.5c0-5.1,3.4-8.5,8.5-8.5s8.5,3.4,8.5,8.5v8.5C29.9,167.3,26.5,170.7,21.3,170.7z"/>
<path d="M166.4,503.5c-18.8,0-34.1-15.4-34.1-34.1s15.4-34.1,34.1-34.1s34.1,15.4,34.1,34.1S185.2,503.5,166.4,503.5z M166.4,452.3
	c-9.4,0-17.1,7.7-17.1,17.1s7.7,17.1,17.1,17.1s17.1-7.7,17.1-17.1S175.8,452.3,166.4,452.3z"/>
<path d="M465.1,384H166.4c-18.8,0-34.1-15.4-34.1-34.1V145.1c0-18.8,15.4-34.1,34.1-34.1h298.7c18.8,0,34.1,15.4,34.1,34.1v204.8
	C499.2,368.6,483.8,384,465.1,384z M166.4,128c-9.4,0-17.1,7.7-17.1,17.1v204.8c0,9.4,7.7,17.1,17.1,17.1h298.7
	c9.4,0,17.1-7.7,17.1-17.1V145.1c0-9.4-7.7-17.1-17.1-17.1H166.4z"/>
<path d="M490.7,221.9H140.8c-5.1,0-8.5-3.4-8.5-8.5v-51.2c0-5.1,3.4-8.5,8.5-8.5h349.9c5.1,0,8.5,3.4,8.5,8.5v51.2
	C499.2,218.5,495.8,221.9,490.7,221.9z M149.3,204.8h332.8v-34.1H149.3V204.8L149.3,204.8z"/>
<path d="M456.5,349.9H345.6c-5.1,0-8.5-3.4-8.5-8.5v-59.7c0-5.1,3.4-8.5,8.5-8.5h110.9c5.1,0,8.5,3.4,8.5,8.5v59.7
	C465.1,346.5,461.7,349.9,456.5,349.9z M354.1,332.8H448v-42.7h-93.9V332.8z"/>
<path d="M217.6,264.5h-42.7c-5.1,0-8.5-3.4-8.5-8.5c0-5.1,3.4-8.5,8.5-8.5h42.7c5.1,0,8.5,3.4,8.5,8.5
	C226.1,261.1,222.7,264.5,217.6,264.5z"/>
<path d="M302.1,264.5h-55.5c-5.1,0-8.5-3.4-8.5-8.5c0-5.1,3.4-8.5,8.5-8.5h55.5c5.1,0,8.5,3.4,8.5,8.5
	C310.6,261.1,307.2,264.5,302.1,264.5z"/>
<path d="M259.4,298.7h-84.5c-5.1,0-8.5-3.4-8.5-8.5s3.4-8.5,8.5-8.5h84.5c5.1,0,8.5,3.4,8.5,8.5
	C267.9,295.3,263.7,298.7,259.4,298.7z"/>
<path d="M302.1,298.7h-16.2c-5.1,0-8.5-3.4-8.5-8.5s3.4-8.5,8.5-8.5h16.2c5.1,0,8.5,3.4,8.5,8.5
	C310.6,295.3,307.2,298.7,302.1,298.7z"/>
<path d="M311.5,443.7H21.3V51.2h290.1V128h-145c-9.4,0-17.1,7.7-17.1,17.1v204.8c0,9.4,7.7,17.1,17.1,17.1h145.1V443.7L311.5,443.7z
	 M38.4,426.7h256V384h-128c-18.8,0-34.1-15.4-34.1-34.1V145.1c0-18.8,15.4-34.1,34.1-34.1h128V68.3h-256
	C38.4,68.3,38.4,426.7,38.4,426.7z"/>
<path d="M277.3,512H55.5c-18.8,0-34.1-15.4-34.1-34.1V34.1C21.3,15.4,36.7,0,55.5,0h221.9c18.8,0,34.1,15.4,34.1,34.1V128H166.4
	c-9.4,0-17.1,7.7-17.1,17.1v204.8c0,9.4,7.7,17.1,17.1,17.1h145.1v110.9C311.5,496.6,296.1,512,277.3,512z M55.5,17.1
	c-9.4,0-17.1,7.7-17.1,17.1v443.7c0,9.4,7.7,17.1,17.1,17.1h221.9c9.4,0,17.1-7.7,17.1-17.1V384h-128c-18.8,0-34.1-15.4-34.1-34.1
	V145.1c0-18.8,15.4-34.1,34.1-34.1h128V34.1c0-9.4-7.7-17.1-17.1-17.1C277.3,17.1,55.5,17.1,55.5,17.1z"/>
</svg>
